HIERARCHY
ROOT Hips
{
	OFFSET -0.001795 -0.223333 0.028219
	CHANNELS 6 Xposition Yposition Zposition Zrotation Yrotation Xrotation 
	JOINT LeftUpLeg
	{
		OFFSET 0.069520 -0.091406 -0.006815
		CHANNELS 3 Zrotation Yrotation Xrotation
		JOINT LeftLeg
		{
			OFFSET 0.034277 -0.375199 -0.004496
			CHANNELS 3 Zrotation Yrotation Xrotation
			JOINT LeftFoot
			{
				OFFSET -0.013596 -0.397961 -0.043693
				CHANNELS 3 Zrotation Yrotation Xrotation
				JOINT LeftToe
				{
					OFFSET 0.026358 -0.055791 0.119288
					CHANNELS 3 Zrotation Yrotation Xrotation
					End Site
					{
						OFFSET 0.000000 0.000000 0.000000
					}
				}
			}
		}
	}
	JOINT RightUpLeg
	{
		OFFSET -0.067670 -0.090522 -0.004320
		CHANNELS 3 Zrotation Yrotation Xrotation
		JOINT RightLeg
		{
			OFFSET -0.038290 -0.382569 -0.008850
			CHANNELS 3 Zrotation Yrotation Xrotation
			JOINT RightFoot
			{
				OFFSET 0.015774 -0.398415 -0.042312
				CHANNELS 3 Zrotation Yrotation Xrotation
				JOINT RightToe
				{
					OFFSET -0.025372 -0.048144 0.123348
					CHANNELS 3 Zrotation Yrotation Xrotation
					End Site
					{
						OFFSET 0.000000 0.000000 0.000000
					}
				}
			}
		}
	}
	JOINT Spine
	{
		OFFSET -0.002533 0.108963 -0.026696
		CHANNELS 3 Zrotation Yrotation Xrotation
		JOINT Spine1
		{
			OFFSET 0.005487 0.135180 0.001092
			CHANNELS 3 Zrotation Yrotation Xrotation
			JOINT Spine2
			{
				OFFSET 0.001457 0.052922 0.025425
				CHANNELS 3 Zrotation Yrotation Xrotation
				JOINT Neck
				{
					OFFSET -0.002778 0.213870 -0.042857
					CHANNELS 3 Zrotation Yrotation Xrotation
					JOINT Head
					{
						OFFSET 0.005152 0.064970 0.051349
						CHANNELS 3 Zrotation Yrotation Xrotation
						End Site
						{
							OFFSET 0.000000 0.000000 0.000000
						}
					}
				}
				JOINT LeftShoulder
				{
					OFFSET 0.078845 0.121749 -0.034090
					CHANNELS 3 Zrotation Yrotation Xrotation
					JOINT LeftArm
					{
						OFFSET 0.090977 0.030469 -0.008868
						CHANNELS 3 Zrotation Yrotation Xrotation
						JOINT LeftForeArm
						{
							OFFSET 0.259612 -0.012772 -0.027456
							CHANNELS 3 Zrotation Yrotation Xrotation
							JOINT LeftHand
							{
								OFFSET 0.249234 0.008986 -0.001171
								CHANNELS 3 Zrotation Yrotation Xrotation
								End Site
								{
									OFFSET 0.000000 0.000000 0.000000
								}
							}
						}
					}
				}
				JOINT RightShoulder
				{
					OFFSET -0.081759 0.118833 -0.038615
					CHANNELS 3 Zrotation Yrotation Xrotation
					JOINT RightArm
					{
						OFFSET -0.096012 0.032551 -0.009143
						CHANNELS 3 Zrotation Yrotation Xrotation
						JOINT RightForeArm
						{
							OFFSET -0.253742 -0.013329 -0.021401
							CHANNELS 3 Zrotation Yrotation Xrotation
							JOINT RightHand
							{
								OFFSET -0.255298 0.007772 -0.005559
								CHANNELS 3 Zrotation Yrotation Xrotation
								End Site
								{
									OFFSET 0.000000 0.000000 0.000000
								}
							}
						}
					}
				}
			}
		}
	}
}
MOTION
Frames: 14
Frame Time: 0.050000
-0.123280 0.734742 2.353754 -1.677006 7.411775 3.908074 4.410866 -6.763784 -64.262617 -2.670305 -3.823630 83.010078 -2.172786 -8.769460 -5.866085 0.000000 0.000000 0.000000 -4.935810 0.992881 -67.115918 2.487091 -0.873643 75.002176 -4.458344 -11.363308 1.929494 0.000000 0.000000 0.000000 -8.820685 -0.819672 87.727321 12.824383 -0.172189 -38.611856 10.804937 14.588653 27.676334 -9.100575 8.348126 -35.160936 0.000000 0.000000 0.000000 -33.254172 -9.155964 -2.715175 -34.533794 1.531302 -4.235542 -17.206414 -58.496100 10.646151 0.000000 0.000000 0.000000 6.919933 13.959050 7.053152 45.202704 4.531996 -4.465531 -10.075660 42.657575 -0.524821 0.000000 0.000000 0.000000 
-0.115492 0.740317 2.352492 -2.287363 6.191007 1.708416 2.436098 -6.856731 -60.301256 -1.142592 -5.281921 82.364854 -0.633139 -6.462489 -8.240111 0.000000 0.000000 0.000000 -3.304364 2.508628 -63.580751 2.055279 -0.329661 75.509205 -5.489798 -13.143849 -1.963613 0.000000 0.000000 0.000000 -9.975515 1.033500 84.390153 17.810333 -0.557664 -39.789109 9.520998 16.753734 28.758015 -9.787519 9.548613 -32.290299 0.000000 0.000000 0.000000 -34.327672 -8.494032 -4.384878 -31.847478 3.944350 -4.292301 -22.022187 -59.349484 13.443190 0.000000 0.000000 0.000000 11.688818 13.969697 8.623192 43.566480 1.325750 -5.998715 -6.674532 39.330991 0.401489 0.000000 0.000000 0.000000 
-0.112101 0.751326 2.352990 -2.145526 6.706107 -1.360457 -0.858900 -7.701403 -54.047458 1.322579 -8.267084 80.236290 0.289010 -6.435321 -11.556607 0.000000 0.000000 0.000000 -3.343108 2.184900 -57.902776 3.052007 -1.764965 75.041398 -6.650428 -15.584344 -6.013869 0.000000 0.000000 0.000000 -10.332974 1.001480 79.851748 23.015676 -0.772779 -41.514513 6.234605 17.135331 29.890928 -10.602192 10.896487 -27.644888 0.000000 0.000000 0.000000 -36.750345 -6.042344 -6.920149 -27.214943 6.654647 -4.159145 -25.537128 -60.120455 15.915495 0.000000 0.000000 0.000000 16.484350 13.349656 9.845633 43.299638 -2.067643 -7.844385 -2.168506 36.416544 1.518887 0.000000 0.000000 0.000000 
-0.112479 0.771379 2.353743 -1.859563 7.509103 -5.071858 -3.763068 -7.644543 -46.004207 3.800344 -10.693785 75.533712 0.942688 -5.379948 -12.493814 0.000000 0.000000 0.000000 -3.153960 1.930612 -49.728790 3.814187 -3.103824 72.824112 -7.368384 -17.297023 -10.777712 0.000000 0.000000 0.000000 -10.274543 0.533465 72.074109 25.013009 -1.715132 -39.558354 2.700613 15.562092 30.891748 -9.046726 10.299404 -27.506643 0.000000 0.000000 0.000000 -35.389999 -3.125539 -8.123493 -27.058843 7.799942 -4.653375 -25.293567 -62.048585 16.296434 0.000000 0.000000 0.000000 18.376074 11.098751 9.005949 44.579476 -5.067595 -9.477066 2.802598 33.626286 2.765769 0.000000 0.000000 0.000000 
-0.115909 0.808224 2.350879 -1.947310 8.435504 -7.213296 -4.803554 -6.620743 -38.591470 5.916312 -11.656597 67.829178 0.297048 -5.628337 -10.062976 0.000000 0.000000 0.000000 -2.561651 1.862444 -41.080466 4.727534 -4.217854 66.516642 -7.447111 -17.758875 -10.968154 0.000000 0.000000 0.000000 -9.847095 -0.013702 62.918584 25.971943 -3.229753 -35.172183 -1.134232 13.704049 28.708196 -7.584905 9.227126 -23.840424 0.000000 0.000000 0.000000 -32.486309 1.066485 -9.756818 -27.320854 8.421691 -4.933371 -29.957007 -64.483595 19.835873 0.000000 0.000000 0.000000 17.960141 10.056967 8.079719 48.265198 -8.435277 -11.101688 6.349042 33.134871 3.836580 0.000000 0.000000 0.000000 
-0.121008 0.868205 2.342124 -1.929332 6.908300 -8.447346 -2.970520 -4.456566 -31.357177 5.511308 -8.742134 57.704435 -1.418247 -3.350333 -0.458357 0.000000 0.000000 0.000000 -1.334868 2.200097 -32.182722 6.349702 -4.116130 55.627731 -7.179962 -17.431264 -4.077176 0.000000 0.000000 0.000000 -10.907169 1.063313 52.538937 21.973904 -4.303668 -27.946299 1.172020 9.960099 26.979575 -7.752038 8.198025 -28.949084 0.000000 0.000000 0.000000 -26.793086 9.144881 -11.631550 -32.084634 7.441720 -6.064722 -48.466601 -65.990562 33.191725 0.000000 0.000000 0.000000 11.546666 3.556280 2.844914 51.581205 -10.414239 -11.663807 13.091202 33.042103 6.108082 0.000000 0.000000 0.000000 
-0.126099 0.959232 2.326689 -1.761691 5.890310 -6.608706 -1.231226 -2.941365 -25.063264 5.001525 -4.952843 38.974955 -6.285385 -2.741902 16.848968 0.000000 0.000000 0.000000 -0.830979 1.975589 -24.480288 5.373653 -2.068631 39.306642 -4.209887 -12.358866 12.760919 0.000000 0.000000 0.000000 -11.806559 1.578960 43.395647 21.256977 -4.309333 -26.969732 2.023134 7.754610 28.018765 -7.710810 7.831036 -27.520381 0.000000 0.000000 0.000000 -24.111879 12.470596 -11.981156 -33.069641 9.971833 -7.190343 -64.138942 -61.564449 41.747544 0.000000 0.000000 0.000000 7.572719 0.212090 0.662842 53.178936 -13.361344 -12.884174 18.427051 33.641955 7.910763 0.000000 0.000000 0.000000 
-0.130097 1.062132 2.303924 -2.368380 3.894181 -4.438268 1.784281 -1.799077 -21.262324 2.113853 -1.474620 19.216850 -8.655246 2.625934 38.067849 0.000000 0.000000 0.000000 0.265490 1.876145 -19.348708 3.963371 -0.720664 27.598587 -1.128765 -10.526506 31.532305 0.000000 0.000000 0.000000 -9.753673 1.046961 35.770429 17.477990 -3.278212 -27.093449 2.298259 5.325626 28.180904 -8.181376 7.844377 -21.838026 0.000000 0.000000 0.000000 -22.898779 16.525162 -13.184474 -34.667794 12.512938 -8.426706 -68.875792 -51.936725 38.222416 0.000000 0.000000 0.000000 5.819699 -1.351626 -0.296832 51.688577 -12.285776 -12.201027 23.908354 31.450986 8.782548 0.000000 0.000000 0.000000 
-0.131867 1.156526 2.272090 -2.097919 3.524688 -3.175383 1.286662 -1.701288 -19.513696 1.017524 -0.498460 8.079168 -11.130331 2.961490 46.782009 0.000000 0.000000 0.000000 1.071182 1.593481 -15.098586 1.668302 0.164414 26.505003 0.471036 -9.555229 36.928125 0.000000 0.000000 0.000000 -7.872669 0.521742 32.879347 14.891971 -2.557527 -27.567348 2.459045 7.643481 26.364437 -4.935137 6.030097 -17.218813 0.000000 0.000000 0.000000 -21.096281 12.331545 -10.733520 -37.288704 14.337469 -9.484865 -59.644259 -45.982420 27.840271 0.000000 0.000000 0.000000 9.108974 -1.516206 -0.066660 48.274402 -11.920377 -11.167378 22.399998 30.647494 8.069675 0.000000 0.000000 0.000000 
-0.132503 1.222482 2.235070 -1.617220 3.664112 -3.561123 1.548205 -1.544628 -18.223977 -1.538439 -0.077692 8.971130 -7.849667 4.551875 41.737605 0.000000 0.000000 0.000000 1.573148 1.372149 -12.457735 -0.549997 0.975358 27.587916 0.547273 -9.293521 36.112346 0.000000 0.000000 0.000000 -6.566061 0.145897 31.345071 10.971979 -1.732524 -27.013536 2.633218 4.906501 25.720422 -6.404689 6.621750 -18.159611 0.000000 0.000000 0.000000 -23.769097 11.173090 -10.162337 -39.636537 14.164888 -10.226733 -49.209020 -44.285292 22.469192 0.000000 0.000000 0.000000 10.797923 1.973606 1.324770 46.872324 -7.844062 -9.603621 16.452031 30.530033 6.009976 0.000000 0.000000 0.000000 
-0.133209 1.267621 2.198882 -0.918189 5.602607 -4.326488 1.158949 -1.586046 -17.521930 -2.602254 -0.166420 17.027596 -5.828753 3.936630 31.514424 0.000000 0.000000 0.000000 -0.016404 1.128129 -11.784872 -0.058256 0.599188 26.517430 2.377741 -6.775718 36.359701 0.000000 0.000000 0.000000 -7.757499 0.276734 32.692973 12.519540 -1.824976 -29.041056 2.404743 4.330742 25.907060 -5.953715 6.391940 -19.233090 0.000000 0.000000 0.000000 -26.933174 10.374595 -10.741411 -39.907788 14.196372 -10.257483 -39.733130 -39.081239 15.841694 0.000000 0.000000 0.000000 10.443635 1.756158 1.261184 47.851693 -5.151183 -8.878112 12.411554 29.280004 4.714446 0.000000 0.000000 0.000000 
-0.134227 1.292975 2.166349 -0.041520 6.633643 -5.278293 1.252906 -1.228539 -13.884989 -4.056757 -0.117537 25.175208 -3.599979 5.021921 26.116523 0.000000 0.000000 0.000000 -1.295686 0.939539 -11.240296 -0.685492 0.731569 25.075229 4.150449 -4.457776 36.435516 0.000000 0.000000 0.000000 -7.714523 0.183530 30.125304 11.647164 -1.865712 -27.244942 0.566902 1.856833 25.543080 -7.763496 7.404174 -17.838181 0.000000 0.000000 0.000000 -28.421968 10.849294 -10.860695 -39.867812 13.557093 -10.166520 -33.276158 -35.790047 12.393767 0.000000 0.000000 0.000000 11.459798 2.700150 1.527004 49.338280 -3.207692 -8.493534 8.582474 29.682779 3.758169 0.000000 0.000000 0.000000 
-0.135900 1.301174 2.136816 -0.443330 9.100359 -6.533054 1.661940 -0.696855 -8.393028 -1.427026 -1.600200 30.122987 -5.202978 2.837553 24.641960 0.000000 0.000000 0.000000 -0.904728 0.819751 -9.571557 -0.790713 0.562124 21.555894 5.642615 -2.804541 38.843751 0.000000 0.000000 0.000000 -8.277466 0.129385 26.477496 13.938232 -2.615886 -25.955717 -1.306490 1.145798 25.230366 -6.074515 6.319095 -14.767923 0.000000 0.000000 0.000000 -27.921049 10.736714 -10.881828 -40.539420 13.330719 -10.234056 -32.351886 -32.632206 10.861162 0.000000 0.000000 0.000000 9.081419 2.312332 1.306462 52.676069 -4.766489 -9.412876 9.660081 28.163881 3.841011 0.000000 0.000000 0.000000 
-0.138013 1.287063 2.108454 -0.824537 10.822469 -6.911357 3.115428 -0.155268 -1.443504 -0.659273 -2.119112 30.516175 -6.255702 2.662579 26.985020 0.000000 0.000000 0.000000 -1.530761 0.815232 -10.624913 -1.077385 0.544294 20.965384 6.950586 -1.321500 40.100584 0.000000 0.000000 0.000000 -8.685672 0.137839 21.003091 15.246030 -3.125718 -24.921191 -3.721800 -1.270936 26.914933 -7.141687 6.992228 -13.468634 0.000000 0.000000 0.000000 -28.085155 12.829281 -11.875180 -40.401485 12.595039 -10.139760 -32.608410 -32.218265 10.955647 0.000000 0.000000 0.000000 6.136273 3.214563 1.483022 56.884179 -6.750759 -11.033059 8.524600 27.875668 3.550867 0.000000 0.000000 0.000000 
